<svg width="18" height="18" viewBox="0 0 18 18" fill="none" xmlns="http://www.w3.org/2000/svg">
<path d="M15.3 0H2.7C1.98392 0 1.29716 0.284464 0.790812 0.790812C0.284464 1.29716 1.6279e-07 1.98392 1.6279e-07 2.7V3.753C-0.000128887 4.12465 0.0764697 4.49232 0.225 4.833V4.887C0.352152 5.17587 0.532253 5.43839 0.756 5.661L6.3 11.169V17.1C6.29969 17.2529 6.33837 17.4035 6.41238 17.5373C6.4864 17.6712 6.5933 17.7839 6.723 17.865C6.86623 17.9538 7.0315 18.0005 7.2 18C7.34089 17.9992 7.47961 17.9652 7.605 17.901L11.205 16.101C11.3534 16.0262 11.4782 15.9118 11.5656 15.7704C11.653 15.629 11.6995 15.4662 11.7 15.3V11.169L17.208 5.661C17.4317 5.43839 17.6118 5.17587 17.739 4.887V4.833C17.8999 4.49499 17.9888 4.1272 18 3.753V2.7C18 1.98392 17.7155 1.29716 17.2092 0.790812C16.7028 0.284464 16.0161 0 15.3 0ZM10.161 10.161C10.0776 10.2451 10.0116 10.3448 9.96681 10.4545C9.92202 10.5641 9.89931 10.6816 9.9 10.8V14.742L8.1 15.642V10.8C8.10068 10.6816 8.07798 10.5641 8.03319 10.4545C7.98841 10.3448 7.92241 10.2451 7.839 10.161L3.069 5.4H14.931L10.161 10.161ZM16.2 3.6H1.8V2.7C1.8 2.4613 1.89482 2.23239 2.0636 2.0636C2.23239 1.89482 2.46131 1.8 2.7 1.8H15.3C15.5387 1.8 15.7676 1.89482 15.9364 2.0636C16.1052 2.23239 16.2 2.4613 16.2 2.7V3.6Z" fill="white"/>
</svg>
