<svg width="40" height="40" viewBox="0 0 40 40" fill="none" xmlns="http://www.w3.org/2000/svg">
<circle cx="20" cy="20" r="20" fill="white"/>
<path d="M27 10H13C12.2044 10 11.4413 10.3161 10.8787 10.8787C10.3161 11.4413 10 12.2044 10 13V14.17C9.99986 14.5829 10.085 14.9915 10.25 15.37V15.43C10.3913 15.751 10.5914 16.0427 10.84 16.29L17 22.41V29C16.9997 29.1699 17.0426 29.3372 17.1249 29.4859C17.2071 29.6346 17.3259 29.7599 17.47 29.85C17.6291 29.9486 17.8128 30.0006 18 30C18.1565 29.9991 18.3107 29.9614 18.45 29.89L22.45 27.89C22.6149 27.8069 22.7536 27.6798 22.8507 27.5227C22.9478 27.3656 22.9994 27.1847 23 27V22.41L29.12 16.29C29.3686 16.0427 29.5687 15.751 29.71 15.43V15.37C29.8888 14.9944 29.9876 14.5858 30 14.17V13C30 12.2044 29.6839 11.4413 29.1213 10.8787C28.5587 10.3161 27.7956 10 27 10ZM21.29 21.29C21.1973 21.3834 21.124 21.4943 21.0742 21.6161C21.0245 21.7379 20.9992 21.8684 21 22V26.38L19 27.38V22C19.0008 21.8684 18.9755 21.7379 18.9258 21.6161C18.876 21.4943 18.8027 21.3834 18.71 21.29L13.41 16H26.59L21.29 21.29ZM28 14H12V13C12 12.7348 12.1054 12.4804 12.2929 12.2929C12.4804 12.1054 12.7348 12 13 12H27C27.2652 12 27.5196 12.1054 27.7071 12.2929C27.8946 12.4804 28 12.7348 28 13V14Z" fill="#D0B3A2"/>
</svg>
