<svg width="38" height="25" viewBox="0 0 38 25" fill="none" xmlns="http://www.w3.org/2000/svg">
<path d="M3.2494 21.0943C3.06871 20.9076 2.85564 20.7613 2.62241 20.6638C2.15984 20.4587 1.641 20.4587 1.17843 20.6638C0.945203 20.7613 0.73213 20.9076 0.551435 21.0943C0.37846 21.2892 0.242868 21.5191 0.15244 21.7707C0.00694076 22.1441 -0.0328119 22.5555 0.0381982 22.9532C0.109208 23.3509 0.287799 23.7169 0.551435 24.0052C0.736115 24.1863 0.948179 24.3319 1.17843 24.4357C1.40586 24.5442 1.65177 24.6002 1.90042 24.6002C2.14907 24.6002 2.39498 24.5442 2.62241 24.4357C2.85266 24.3319 3.06472 24.1863 3.2494 24.0052C3.51304 23.7169 3.69163 23.3509 3.76264 22.9532C3.83365 22.5555 3.7939 22.1441 3.6484 21.7707C3.55797 21.5191 3.42238 21.2892 3.2494 21.0943ZM9.50033 4.09995H36.1C36.6039 4.09995 37.0872 3.88397 37.4435 3.49953C37.7998 3.11508 38 2.59366 38 2.04998C38 1.50629 37.7998 0.984869 37.4435 0.600424C37.0872 0.215979 36.6039 0 36.1 0H9.50033C8.99643 0 8.51316 0.215979 8.15685 0.600424C7.80053 0.984869 7.60035 1.50629 7.60035 2.04998C7.60035 2.59366 7.80053 3.11508 8.15685 3.49953C8.51316 3.88397 8.99643 4.09995 9.50033 4.09995ZM3.2494 10.8444C2.98222 10.5599 2.64294 10.3672 2.27436 10.2906C1.90579 10.214 1.52443 10.2569 1.17843 10.4139C0.948179 10.5177 0.736115 10.6633 0.551435 10.8444C0.37846 11.0393 0.242868 11.2692 0.15244 11.5209C0.0519213 11.7662 0 12.0316 0 12.2999C0 12.5681 0.0519213 12.8335 0.15244 13.0788C0.248658 13.3273 0.383609 13.5561 0.551435 13.7553C0.736115 13.9364 0.948179 14.082 1.17843 14.1858C1.40586 14.2943 1.65177 14.3503 1.90042 14.3503C2.14907 14.3503 2.39498 14.2943 2.62241 14.1858C2.85266 14.082 3.06472 13.9364 3.2494 13.7553C3.41723 13.5561 3.55218 13.3273 3.6484 13.0788C3.74892 12.8335 3.80084 12.5681 3.80084 12.2999C3.80084 12.0316 3.74892 11.7662 3.6484 11.5209C3.55797 11.2692 3.42238 11.0393 3.2494 10.8444ZM36.1 10.2499H9.50033C8.99643 10.2499 8.51316 10.4659 8.15685 10.8503C7.80053 11.2347 7.60035 11.7562 7.60035 12.2999C7.60035 12.8435 7.80053 13.365 8.15685 13.7494C8.51316 14.1339 8.99643 14.3498 9.50033 14.3498H36.1C36.6039 14.3498 37.0872 14.1339 37.4435 13.7494C37.7998 13.365 38 12.8435 38 12.2999C38 11.7562 37.7998 11.2347 37.4435 10.8503C37.0872 10.4659 36.6039 10.2499 36.1 10.2499ZM3.2494 0.594493C3.06871 0.407862 2.85564 0.261565 2.62241 0.163998C2.27641 0.00701193 1.89505 -0.0358785 1.52648 0.0407375C1.1579 0.117354 0.818618 0.310043 0.551435 0.594493C0.383609 0.793752 0.248658 1.02256 0.15244 1.27098C0.0519213 1.51637 0 1.78169 0 2.04998C0 2.31826 0.0519213 2.58358 0.15244 2.82897C0.248658 3.07739 0.383609 3.3062 0.551435 3.50546C0.736115 3.68654 0.948179 3.83214 1.17843 3.93595C1.52443 4.09294 1.90579 4.13583 2.27436 4.05921C2.64294 3.9826 2.98222 3.78991 3.2494 3.50546C3.41723 3.3062 3.55218 3.07739 3.6484 2.82897C3.74892 2.58358 3.80084 2.31826 3.80084 2.04998C3.80084 1.78169 3.74892 1.51637 3.6484 1.27098C3.55218 1.02256 3.41723 0.793752 3.2494 0.594493ZM36.1 20.4998H9.50033C8.99643 20.4998 8.51316 20.7157 8.15685 21.1002C7.80053 21.4846 7.60035 22.006 7.60035 22.5497C7.60035 23.0934 7.80053 23.6148 8.15685 23.9993C8.51316 24.3837 8.99643 24.5997 9.50033 24.5997H36.1C36.6039 24.5997 37.0872 24.3837 37.4435 23.9993C37.7998 23.6148 38 23.0934 38 22.5497C38 22.006 37.7998 21.4846 37.4435 21.1002C37.0872 20.7157 36.6039 20.4998 36.1 20.4998Z" fill="white"/>
</svg>
