<svg width="59" height="65" viewBox="0 0 59 65" fill="none" xmlns="http://www.w3.org/2000/svg">
<mask id="path-1-inside-1_0_55" fill="white">
<path d="M0 0H58.7931V65H0V0Z"/>
</mask>
<path d="M0 0H58.7931V65H0V0Z" fill="#FF0000"/>
<path d="M58.7931 64H0V66H58.7931V64Z" fill="black" fill-opacity="0.33" mask="url(#path-1-inside-1_0_55)"/>
<mask id="mask0_0_55" style="mask-type:alpha" maskUnits="userSpaceOnUse" x="11" y="12" width="37" height="40">
<rect x="11.7585" y="12" width="36.1804" height="40" fill="#D9D9D9"/>
<rect x="12.2585" y="12.5" width="35.1804" height="39" stroke="black" stroke-opacity="0.33"/>
</mask>
<g mask="url(#mask0_0_55)">
<path d="M22.3111 47C21.482 47 20.7722 46.6736 20.1818 46.0208C19.5913 45.3681 19.2961 44.5833 19.2961 43.6667V22H17.7886V18.6667H25.3261V17H34.3712V18.6667H41.9088V22H40.4013V43.6667C40.4013 44.5833 40.1061 45.3681 39.5156 46.0208C38.9252 46.6736 38.2154 47 37.3863 47H22.3111ZM37.3863 22H22.3111V43.6667H37.3863V22ZM25.3261 40.3333H28.3412V25.3333H25.3261V40.3333ZM31.3562 40.3333H34.3712V25.3333H31.3562V40.3333Z" fill="white"/>
<path d="M19.7961 22V21.5H19.2961H18.2886V19.1667H25.3261H25.8261V18.6667V17.5H33.8712V18.6667V19.1667H34.3712H41.4088V21.5H40.4013H39.9013V22V43.6667C39.9013 44.465 39.6484 45.1287 39.1448 45.6854C38.6426 46.2407 38.0646 46.5 37.3863 46.5H22.3111C21.6328 46.5 21.0548 46.2407 20.5526 45.6854C20.049 45.1287 19.7961 44.465 19.7961 43.6667V22ZM37.8863 22V21.5H37.3863H22.3111H21.8111V22V43.6667V44.1667H22.3111H37.3863H37.8863V43.6667V22ZM27.8412 25.8333V39.8333H25.8261V25.8333H27.8412ZM33.8712 25.8333V39.8333H31.8562V25.8333H33.8712Z" stroke="black" stroke-opacity="0.33"/>
</g>
<path d="M5.427 0H58.7931V65H5.427V0Z" fill="#FF0000"/>
<mask id="mask1_0_55" style="mask-type:alpha" maskUnits="userSpaceOnUse" x="14" y="12" width="37" height="40">
<rect x="14.4722" y="12" width="36.1804" height="40" fill="#D9D9D9"/>
</mask>
<g mask="url(#mask1_0_55)">
<path d="M25.0247 47C24.1956 47 23.4858 46.6736 22.8954 46.0208C22.3049 45.3681 22.0097 44.5833 22.0097 43.6667V22H20.5022V18.6667H28.0398V17H37.0849V18.6667H44.6224V22H43.1149V43.6667C43.1149 44.5833 42.8197 45.3681 42.2293 46.0208C41.6388 46.6736 40.929 47 40.0999 47H25.0247ZM40.0999 22H25.0247V43.6667H40.0999V22ZM28.0398 40.3333H31.0548V25.3333H28.0398V40.3333ZM34.0698 40.3333H37.0849V25.3333H34.0698V40.3333Z" fill="white"/>
</g>
</svg>
