<svg width="30" height="30" viewBox="0 0 30 30" fill="none" xmlns="http://www.w3.org/2000/svg">
<mask id="mask0_0_71" style="mask-type:alpha" maskUnits="userSpaceOnUse" x="-5" y="-5" width="40" height="40">
<rect x="-5" y="-5" width="40" height="40" fill="#CCCCCC"/>
</mask>
<g mask="url(#mask0_0_71)">
<path d="M21.6667 13.3333V8.33333H16.6667V5H21.6667V0H25V5H30V8.33333H25V13.3333H21.6667ZM28.25 30C24.6667 30 21.1736 29.2014 17.7708 27.6042C14.3681 26.0069 11.3542 23.8958 8.72917 21.2708C6.10417 18.6458 3.99306 15.6319 2.39583 12.2292C0.798611 8.82639 0 5.33333 0 1.75C0 1.25 0.166667 0.833333 0.5 0.5C0.833333 0.166667 1.25 0 1.75 0H8.5C8.88889 0 9.23611 0.125 9.54167 0.375C9.84722 0.625 10.0278 0.944444 10.0833 1.33333L11.1667 7.16667C11.2222 7.55556 11.2153 7.90972 11.1458 8.22917C11.0764 8.54861 10.9167 8.83333 10.6667 9.08333L6.625 13.1667C7.79167 15.1667 9.25694 17.0417 11.0208 18.7917C12.7847 20.5417 14.7222 22.0556 16.8333 23.3333L20.75 19.4167C21 19.1667 21.3264 18.9792 21.7292 18.8542C22.1319 18.7292 22.5278 18.6944 22.9167 18.75L28.6667 19.9167C29.0556 20 29.375 20.1875 29.625 20.4792C29.875 20.7708 30 21.1111 30 21.5V28.25C30 28.75 29.8333 29.1667 29.5 29.5C29.1667 29.8333 28.75 30 28.25 30ZM5.04167 10L7.79167 7.25L7.08333 3.33333H3.375C3.51389 4.47222 3.70833 5.59722 3.95833 6.70833C4.20833 7.81944 4.56944 8.91667 5.04167 10ZM19.9583 24.9167C21.0417 25.3889 22.1458 25.7639 23.2708 26.0417C24.3958 26.3194 25.5278 26.5 26.6667 26.5833V22.9167L22.75 22.125L19.9583 24.9167Z" fill="white"/>
</g>
</svg>
