<svg width="34" height="34" viewBox="0 0 34 34" fill="none" xmlns="http://www.w3.org/2000/svg">
<mask id="mask0_0_74" style="mask-type:alpha" maskUnits="userSpaceOnUse" x="-4" y="-4" width="42" height="42">
<rect x="-3.39992" y="-3.39998" width="40.8" height="40.8" fill="#CCCCCC"/>
</mask>
<g mask="url(#mask0_0_74)">
<path d="M15.47 28.9H18.445V26.775C19.8617 26.52 21.08 25.9675 22.1 25.1175C23.12 24.2675 23.63 23.0067 23.63 21.335C23.63 20.145 23.29 19.0542 22.61 18.0625C21.93 17.0708 20.57 16.2067 18.53 15.47C16.83 14.9033 15.6542 14.4075 15.0025 13.9825C14.3508 13.5575 14.025 12.9767 14.025 12.24C14.025 11.5033 14.2871 10.9225 14.8113 10.4975C15.3354 10.0725 16.0933 9.86001 17.085 9.86001C17.9917 9.86001 18.7 10.0796 19.21 10.5188C19.72 10.9579 20.0883 11.5033 20.315 12.155L23.035 11.05C22.7233 10.0583 22.1496 9.19417 21.3138 8.4575C20.4779 7.72084 19.55 7.31 18.53 7.225V5.1H15.555V7.225C14.1383 7.53667 13.0333 8.16 12.24 9.095C11.4467 10.03 11.05 11.0783 11.05 12.24C11.05 13.5717 11.4396 14.6483 12.2188 15.47C12.9979 16.2917 14.2233 17 15.895 17.595C17.68 18.2467 18.9196 18.8275 19.6138 19.3375C20.3079 19.8475 20.655 20.5133 20.655 21.335C20.655 22.27 20.3221 22.9571 19.6563 23.3963C18.9904 23.8354 18.19 24.055 17.255 24.055C16.32 24.055 15.4913 23.7646 14.7688 23.1838C14.0463 22.6029 13.515 21.7317 13.175 20.57L10.37 21.675C10.7667 23.035 11.3829 24.1329 12.2188 24.9688C13.0546 25.8046 14.1383 26.3783 15.47 26.69V28.9ZM17 34C14.6483 34 12.4383 33.5538 10.37 32.6613C8.30167 31.7688 6.5025 30.5575 4.9725 29.0275C3.4425 27.4975 2.23125 25.6983 1.33875 23.63C0.44625 21.5617 0 19.3517 0 17C0 14.6483 0.44625 12.4383 1.33875 10.37C2.23125 8.30167 3.4425 6.5025 4.9725 4.9725C6.5025 3.4425 8.30167 2.23125 10.37 1.33875C12.4383 0.44625 14.6483 0 17 0C19.3517 0 21.5617 0.44625 23.63 1.33875C25.6983 2.23125 27.4975 3.4425 29.0275 4.9725C30.5575 6.5025 31.7688 8.30167 32.6613 10.37C33.5538 12.4383 34 14.6483 34 17C34 19.3517 33.5538 21.5617 32.6613 23.63C31.7688 25.6983 30.5575 27.4975 29.0275 29.0275C27.4975 30.5575 25.6983 31.7688 23.63 32.6613C21.5617 33.5538 19.3517 34 17 34ZM17 30.6C20.7967 30.6 24.0125 29.2825 26.6475 26.6475C29.2825 24.0125 30.6 20.7967 30.6 17C30.6 13.2033 29.2825 9.98751 26.6475 7.3525C24.0125 4.7175 20.7967 3.4 17 3.4C13.2033 3.4 9.98751 4.7175 7.3525 7.3525C4.7175 9.98751 3.4 13.2033 3.4 17C3.4 20.7967 4.7175 24.0125 7.3525 26.6475C9.98751 29.2825 13.2033 30.6 17 30.6Z" fill="white"/>
</g>
</svg>
