<svg width="22" height="27" viewBox="0 0 22 27" fill="none" xmlns="http://www.w3.org/2000/svg">
<mask id="mask0_1_215" style="mask-type:alpha" maskUnits="userSpaceOnUse" x="-6" y="-3" width="33" height="33">
<rect x="-5.39992" y="-2.69999" width="32.4" height="32.4" fill="#CCCCCC"/>
</mask>
<g mask="url(#mask0_1_215)">
<path d="M0 22.95V20.25H2.7V10.8C2.7 8.9325 3.2625 7.27313 4.3875 5.82188C5.5125 4.37063 6.975 3.42 8.775 2.97V2.025C8.775 1.4625 8.97188 0.984375 9.36563 0.590625C9.75938 0.196875 10.2375 0 10.8 0C11.3625 0 11.8406 0.196875 12.2344 0.590625C12.6281 0.984375 12.825 1.4625 12.825 2.025V2.97C14.625 3.42 16.0875 4.37063 17.2125 5.82188C18.3375 7.27313 18.9 8.9325 18.9 10.8V20.25H21.6V22.95H0ZM10.8 27C10.0575 27 9.42188 26.7356 8.89313 26.2069C8.36438 25.6781 8.1 25.0425 8.1 24.3H13.5C13.5 25.0425 13.2356 25.6781 12.7069 26.2069C12.1781 26.7356 11.5425 27 10.8 27ZM5.4 20.25H16.2V10.8C16.2 9.315 15.6713 8.04375 14.6138 6.98625C13.5563 5.92875 12.285 5.4 10.8 5.4C9.315 5.4 8.04375 5.92875 6.98625 6.98625C5.92875 8.04375 5.4 9.315 5.4 10.8V20.25Z" fill="white"/>
</g>
</svg>
