<svg width="50" height="50" viewBox="0 0 50 50" fill="none" xmlns="http://www.w3.org/2000/svg">
<circle cx="25" cy="25" r="25" fill="#D0B3A2"/>
<mask id="mask0_1_237" style="mask-type:alpha" maskUnits="userSpaceOnUse" x="10" y="10" width="30" height="30">
<rect x="10" y="10" width="30" height="30" fill="#CCCCCC"/>
</mask>
<g mask="url(#mask0_1_237)">
<path d="M15 36.25C14.3125 36.25 13.724 36.0052 13.2344 35.5156C12.7448 35.026 12.5 34.4375 12.5 33.75V16.25C12.5 15.5625 12.7448 14.974 13.2344 14.4844C13.724 13.9948 14.3125 13.75 15 13.75H35C35.6875 13.75 36.276 13.9948 36.7656 14.4844C37.2552 14.974 37.5 15.5625 37.5 16.25V33.75C37.5 34.4375 37.2552 35.026 36.7656 35.5156C36.276 36.0052 35.6875 36.25 35 36.25H15ZM15 33.75H35V16.25H15V33.75ZM16.25 31.25H22.5V28.75H16.25V31.25ZM28.1875 28.75L34.375 22.5625L32.5938 20.7812L28.1875 25.2188L26.4062 23.4375L24.6562 25.2188L28.1875 28.75ZM16.25 26.25H22.5V23.75H16.25V26.25ZM16.25 21.25H22.5V18.75H16.25V21.25Z" fill="white"/>
</g>
</svg>
